<svg
   width="128"
   height="128"
   viewBox="0 0 128 128"
   version="1.1"
   id="svg200"
   xmlns="http://www.w3.org/2000/svg"
   xmlns:svg="http://www.w3.org/2000/svg">
  <g
     style="fill:none;stroke:#fff;stroke-width:1;stroke-linecap:round;stroke-linejoin:round;stroke-opacity:1;"
     id="g198"
     transform="translate(-11.2,-9)">
    <path
       d="M 12.130922,102.3243 12.126627,9.2844487 121.18989,9.2287897"
       id="path182"
       />
    <path
       d="M 50.789328,87.311419 C 34.980279,63.971094 22.264473,35.032779 12.40266,9.3652741 31.446057,31.604345 56.632318,53.852467 78.292028,70.858912"
       id="path184"
       />
    <path
       d="M 12.413254,9.4124846 C 44.77038,25.662474 82.445472,36.656352 116.07713,46.7886"
       id="path186"
       />
    <path
       d="M 12.449103,92.870532 C 16.40469,87.035941 34.950667,78.536747 48.700023,83.756459 53.457208,72.540779 64.471728,68.328931 73.839593,67.333624 79.969847,54.126675 95.455453,44.135918 109.48657,44.632295 104.38891,31.561968 107.79032,17.627545 118.60269,9.3698069"
       id="path188"
       />
    <path
       d="M 11.989797,84.777637 C 14.770184,78.336384 33.39773,75.974922 44.715731,77.756513 45.829966,71.349147 45.121469,59.522913 59.359224,55.282309 60.353086,43.974841 83.135493,37.6862 97.148725,41.001221 92.144578,31.821217 94.26421,11.876798 104.55194,9.283702"
       id="path190"
       />
    <path
       d="m 12.25555,62.848306 c 5.085525,-3.971463 13.691735,-7.819866 21.191216,-5.589037 3.263588,-5.472864 8.799622,-9.812548 16.013449,-10.496227 1.419249,-6.05478 9.448818,-15.077661 16.194512,-15.539785 0.918069,-9.45518 5.851518,-18.381551 15.577701,-21.8731221"
       id="path192"
       />
    <path
       d="M 12.308751,66.457851 C 17.394276,62.486388 31.177341,62.439515 38.287587,66.324595 39.896923,59.294789 49.705906,52.159076 56.919733,53.324267 54.835861,46.588324 62.729191,32.53131 69.474885,32.069186 70.392954,22.614006 82.425667,12.963221 92.15185,9.4716496"
       id="path194"
       />
    <path
       d="m 12.295549,45.484721 c 3.316471,-3.412814 8.305728,-5.185161 13.75683,-2.954332 1.494534,-4.262458 4.609757,-7.764169 10.147638,-7.982307 1.419249,-6.05478 4.048546,-9.67739 10.79424,-10.139514 -0.571661,-4.799774 4.29399,-13.514618 12.71666,-15.1440271"
       id="path196"
       />
  </g>
</svg>
