<?xml version="1.0" encoding="UTF-8" standalone="no"?>
<!-- Created with Inkscape (http://www.inkscape.org/) -->

<svg
   width="128mm"
   height="128mm"
   viewBox="0 0 128 128"
   version="1.1"
   id="svg5"
   xmlns:inkscape="http://www.inkscape.org/namespaces/inkscape"
   xmlns:sodipodi="http://sodipodi.sourceforge.net/DTD/sodipodi-0.dtd"
   xmlns="http://www.w3.org/2000/svg"
   xmlns:svg="http://www.w3.org/2000/svg">
  <g
     inkscape:label="Layer 1"
     inkscape:groupmode="layer"
     id="layer1">
    <path
       style="fill:#fff;fill-opacity:1;stroke:none;stroke-width:0.265;stroke-linecap:butt;stroke-linejoin:miter;stroke-dasharray:none;stroke-opacity:1"
       d="m 37.374935,84.381398 c 1.144592,-4.132877 2.291392,-8.265299 6.191141,-11.831749 3.844627,3.550997 11.565914,4.547502 18.659442,5.957662 l 10.16246,-1.120127 -0.632091,-4.102201 3.362805,3.415027 6.686846,-2.38394 -7.07e-4,-4.45078 2.369562,3.387552 8.446498,-3.843661 c 6.183186,-3.899376 11.755379,-9.467997 14.889499,-16.109966 4.64247,1.235354 7.89962,3.879304 11.21715,6.461859 -8.16305,3.664402 -12.78135,8.697893 -11.96791,19.17733 C 99.162337,80.620698 87.133715,94.693281 90.101675,106.59899 84.311865,95.207471 65.899701,92.141264 60.152089,94.651321 57.84793,89.132495 51.535504,80.27369 37.374935,84.381398 Z"
       id="path245"
       sodipodi:nodetypes="cccccccccccccccc" />
    <path
       style="fill:#fff;fill-opacity:1;stroke:none;stroke-width:0.265;stroke-linecap:butt;stroke-linejoin:miter;stroke-dasharray:none;stroke-opacity:1"
       d="m 1.9384265,60.322039 c 1.1484199,-2.208626 2.2980386,-4.416727 4.9425405,-5.971402 1.7546937,2.480031 6.018716,3.977201 9.876395,5.633528 l 5.905453,0.589782 0.135902,-2.405512 1.497512,2.344708 4.084407,-0.547054 0.536453,-2.527281 0.936853,2.209302 5.259626,-1.163647 c 3.98122,-1.468284 7.816852,-3.95808 10.397593,-7.351416 2.487031,1.261423 4.017557,3.155562 5.589774,5.022124 -5.077061,1.096052 -8.306518,3.397055 -9.108673,9.445498 -4.516734,0.03883 -13.044148,6.578485 -12.794984,13.696659 C 27.283822,72.130744 17.199065,68.168837 13.632751,68.900794 12.990111,65.48922 10.474408,59.697698 1.9384265,60.322039 Z"
       id="path245-5"
       sodipodi:nodetypes="cccccccccccccccc" />
    <path
       style="fill:#fff;fill-opacity:1;stroke:none;stroke-width:0.265001;stroke-linecap:butt;stroke-linejoin:miter;stroke-dasharray:none;stroke-opacity:1"
       d="m 47.467807,33.259717 c 1.518237,-2.919852 3.038058,-5.839011 6.534148,-7.894325 2.319744,3.278655 7.956875,5.257947 13.056812,7.447648 l 7.807139,0.779705 0.179665,-3.18014 1.979744,3.099755 5.399676,-0.723217 0.709202,-3.341121 1.238541,2.920746 6.953341,-1.538367 c 5.26326,-1.941104 10.334055,-5.232669 13.745845,-9.718734 3.28791,1.667629 5.3113,4.171722 7.38981,6.639359 -6.71199,1.449004 -10.9814,4.490981 -12.04187,12.487156 -5.971222,0.05133 -17.244651,8.696902 -16.915251,18.107284 C 80.974978,48.871084 67.642708,43.633356 62.927962,44.60102 62.078378,40.090844 58.752563,32.434324 47.467807,33.259717 Z"
       id="path245-5-2"
       sodipodi:nodetypes="cccccccccccccccc" />
  </g>
</svg>
