<?xml version="1.0" encoding="UTF-8" standalone="no"?>
<!-- Created with Inkscape (http://www.inkscape.org/) -->

<svg
   width="100mm"
   height="100mm"
   viewBox="0 0 100 100"
   version="1.1"
   id="svg5"
   xml:space="preserve"
   xmlns="http://www.w3.org/2000/svg"
   xmlns:svg="http://www.w3.org/2000/svg"><defs
     id="defs2" /><g
     id="layer1"><path
       style="fill:#439e46;fill-opacity:1;stroke:none;stroke-width:0.866;stroke-linecap:round;stroke-linejoin:round;stroke-dasharray:none;stroke-opacity:1"
       d="M 64.054828,11.367462 C 54.860275,12.528524 46.50578,16.707184 46.570977,24.863768 l 8.537437,0.07668 c -0.08021,-4.080467 1.689511,-8.471259 9.968862,-10.607889 0.01989,-1.154845 -0.162359,-2.216396 -1.022448,-2.965097 z"
       id="path2565" /><path
       style="fill:#ff8716;fill-opacity:1;stroke:none;stroke-width:0.854921;stroke-linecap:round;stroke-linejoin:round;stroke-dasharray:none;stroke-opacity:1"
       d="M 51.080692,82.489403 C 28.165271,84.770914 10.51513,72.174717 6.9801562,58.16981 4.5392645,49.248694 5.6759093,41.583389 8.672089,32.616806 13.68181,19.662525 33.185242,15.597402 50.989094,21.779298 67.724807,18.838975 81.130638,13.451251 91.016221,32.01472 c 2.853903,7.441375 3.081987,15.694423 0,26.893072 -4.431638,12.633332 -12.698156,22.831625 -39.935529,23.581611 z"
       id="path2508" /><path
       style="fill:#020202;fill-opacity:1;stroke:none;stroke-width:1.28765;stroke-linecap:round;stroke-linejoin:round;stroke-dasharray:none;stroke-opacity:1"
       d="M 33.860179,27.535048 26.043967,44.328222 40.222212,44.130654 Z"
       id="path290" /><path
       style="fill:#020202;fill-opacity:1;stroke:none;stroke-width:1.28765;stroke-linecap:round;stroke-linejoin:round;stroke-dasharray:none;stroke-opacity:1"
       d="m 58.762996,43.735523 5.634947,-15.607775 7.270895,15.410207 z"
       id="path292" /><path
       style="fill:#020202;fill-opacity:1;stroke:none;stroke-width:1.28765;stroke-linecap:round;stroke-linejoin:round;stroke-dasharray:none;stroke-opacity:1"
       d="m 44.857408,54.651086 4.089879,-8.939897 4.271651,9.088071 z"
       id="path294" /><path
       style="fill:#020202;fill-opacity:1;stroke:none;stroke-width:1.28765;stroke-linecap:round;stroke-linejoin:round;stroke-dasharray:none;stroke-opacity:1"
       d="m 13.292496,50.963657 c 7.201323,4.242548 10.998953,6.968341 19.93794,8.818599 l -1.431459,4.544035 5.862161,1.481751 0.249936,-5.161432 c 7.437325,0.83624 15.100128,0.579893 22.176236,0.17287 l 0.06812,5.309612 5.930334,-1.136008 -1.499629,-4.544042 c 7.972833,-2.59922 14.584101,-6.576244 20.812947,-10.940258 -4.461233,11.536721 -15.269696,23.701933 -32.78519,25.346412 l 0.501881,-5.903031 -6.41795,-0.08184 0.797928,5.994074 C 23.853576,71.88058 17.547284,64.672485 13.292496,50.963657 Z"
       id="path296" /></g></svg>
